<svg xmlns="http://www.w3.org/2000/svg" width="64" height="64" viewBox="0 0 64 64" fill="none">
	<defs>
		<linearGradient id="bg" x1="8" y1="8" x2="56" y2="56" gradientUnits="userSpaceOnUse">
			<stop stop-color="#0E1F3D" />
			<stop offset="1" stop-color="#114A84" />
		</linearGradient>
		<linearGradient id="up" x1="18" y1="44" x2="46" y2="24" gradientUnits="userSpaceOnUse">
			<stop stop-color="#34D399" />
			<stop offset="1" stop-color="#10B981" />
		</linearGradient>
	</defs>

	<rect x="4" y="4" width="56" height="56" rx="14" fill="url(#bg)" />
	<rect x="4" y="4" width="56" height="56" rx="14" stroke="#7DD3FC" stroke-opacity="0.25" />

	<path d="M16 44H48" stroke="#D1E7FF" stroke-opacity="0.45" stroke-linecap="round" />
	<rect x="18" y="33" width="4" height="11" rx="1" fill="#C7D2FE" />
	<rect x="26" y="27" width="4" height="17" rx="1" fill="#93C5FD" />
	<rect x="34" y="21" width="4" height="23" rx="1" fill="#60A5FA" />

	<path d="M17 38L26 33L34 29L45 20" stroke="url(#up)" stroke-width="3" stroke-linecap="round" stroke-linejoin="round" />
	<path d="M41 20H45V24" stroke="url(#up)" stroke-width="3" stroke-linecap="round" stroke-linejoin="round" />

	<circle cx="47" cy="47" r="7" fill="#FDE68A" stroke="#F59E0B" />
	<path d="M47 43V51" stroke="#9A3412" stroke-width="1.8" stroke-linecap="round" />
	<path d="M49.8 45.2C49.2 44.1 48.2 43.6 47 43.6C45.7 43.6 44.8 44.3 44.8 45.3C44.8 46.4 45.7 46.9 47.3 47.3C48.7 47.6 49.6 48.1 49.6 49.3C49.6 50.4 48.6 51.2 47 51.2C45.5 51.2 44.4 50.5 43.8 49.2" stroke="#9A3412" stroke-width="1.6" stroke-linecap="round" />
</svg>